<?xml version="1.0" standalone="no"?>
<!DOCTYPE svg PUBLIC "-//W3C//DTD SVG 20010904//EN"
 "http://www.w3.org/TR/2001/REC-SVG-20010904/DTD/svg10.dtd">
<svg version="1.0" xmlns="http://www.w3.org/2000/svg"
 width="1042.000000pt" height="1042.000000pt" viewBox="0 0 1042.000000 1042.000000"
 preserveAspectRatio="xMidYMid meet">
<metadata>
Created by potrace 1.14, written by Peter Selinger 2001-2017
</metadata>
<g transform="translate(0.000000,1042.000000) scale(0.100000,-0.100000)"
fill="#000000" stroke="none">
<path d="M4919 8645 c-2 -2 -49 -6 -104 -10 -55 -4 -102 -9 -105 -10 -3 -2
-33 -7 -65 -10 -33 -4 -90 -13 -127 -21 -37 -7 -82 -16 -100 -19 -18 -3 -41
-8 -50 -11 -9 -3 -25 -7 -37 -9 -11 -2 -55 -13 -98 -25 -558 -155 -1059 -447
-1469 -855 -232 -231 -366 -403 -528 -673 -228 -381 -398 -877 -441 -1287 -4
-33 -10 -89 -15 -125 -9 -68 -6 -573 3 -625 3 -16 11 -70 17 -120 77 -615 370
-1262 789 -1740 95 -108 425 -436 520 -515 23 -19 61 -52 84 -72 22 -20 45
-34 49 -32 4 3 8 1 8 -4 0 -11 170 -137 185 -137 6 0 18 -10 28 -23 10 -12 22
-20 27 -17 5 3 10 1 12 -4 3 -9 52 -40 98 -63 14 -7 27 -15 30 -18 3 -3 19
-12 35 -20 17 -8 32 -18 35 -21 10 -12 70 -39 70 -32 0 5 4 4 8 -2 13 -18 53
-36 64 -29 6 4 8 3 5 -2 -6 -11 180 -97 193 -89 5 3 10 1 12 -5 3 -9 96 -49
128 -55 8 -1 23 -5 32 -9 9 -4 22 -4 29 0 8 4 9 3 5 -4 -4 -7 14 -17 51 -27
32 -9 64 -18 71 -20 7 -3 16 -5 20 -6 4 -1 27 -8 52 -15 25 -7 56 -15 70 -17
14 -2 32 -7 40 -10 30 -11 122 -27 130 -22 5 3 12 0 15 -6 4 -5 13 -8 20 -5 7
2 16 2 19 -2 7 -7 19 -9 86 -16 25 -3 59 -8 75 -10 17 -2 68 -7 115 -11 47 -4
87 -9 89 -11 2 -2 10 1 18 7 7 7 13 7 13 2 0 -13 308 -15 316 -2 3 6 11 5 20
-2 11 -9 14 -9 14 1 0 9 3 10 13 1 8 -6 17 -8 20 -5 6 6 49 10 140 13 28 1 36
4 31 14 -6 9 -5 9 8 0 8 -7 18 -10 21 -6 4 3 28 8 54 9 27 2 59 7 73 10 14 4
39 8 55 10 17 1 39 5 50 8 37 8 210 48 228 51 9 2 22 7 27 10 5 3 20 8 32 11
13 3 28 6 33 8 19 4 120 37 140 46 11 4 59 23 107 41 47 19 84 37 82 40 -2 4
2 7 9 6 34 -1 48 4 41 15 -4 7 -3 8 4 4 6 -4 22 -1 34 6 13 7 25 13 28 13 3 0
16 7 30 15 14 8 27 14 30 15 17 1 190 100 190 108 0 6 3 7 7 4 3 -4 22 3 42
15 82 50 200 128 214 143 9 8 18 15 22 15 11 0 128 92 159 124 16 17 25 24 21
16 -5 -8 5 -3 21 12 16 15 48 44 72 65 85 75 157 147 155 155 -2 4 1 8 7 8 5
0 22 13 37 29 68 70 113 120 113 124 0 3 17 24 38 46 53 58 62 69 62 80 0 5 7
12 16 15 9 4 14 9 11 12 -2 3 7 17 20 32 14 15 41 50 59 77 19 28 40 59 48 70
52 75 95 149 90 156 -3 5 -1 9 5 9 15 0 83 129 75 142 -4 6 -3 8 3 5 13 -8 26
20 16 35 -4 7 -1 8 7 3 10 -6 12 -4 7 9 -4 9 -3 15 2 12 10 -6 72 117 74 147
1 9 4 17 8 17 8 0 65 151 61 163 -1 4 3 7 9 7 7 0 9 9 6 21 -3 12 -3 18 0 15
9 -8 34 66 28 82 -2 6 0 12 4 12 16 0 86 262 116 435 2 17 7 41 10 55 3 14 7
54 10 90 2 36 5 65 6 65 3 0 10 67 23 233 2 18 -2 32 -8 32 -6 0 -5 4 3 9 9 6
10 10 2 16 -7 4 -8 11 -3 18 13 18 12 57 -1 57 -7 0 -6 4 3 10 13 9 13 11 0
20 -8 5 -10 10 -4 10 6 0 12 11 12 25 0 16 -5 22 -12 18 -8 -5 -8 -3 0 8 5 8
9 28 9 44 -4 68 -18 241 -21 260 -2 11 -6 40 -9 65 -16 142 -40 257 -57 278
-11 13 -11 14 2 7 12 -6 12 -5 3 5 -6 7 -9 19 -6 28 5 11 3 13 -7 7 -8 -5 -11
-4 -6 3 6 10 -7 83 -21 122 -3 8 -7 21 -9 28 -7 35 -68 218 -76 226 -4 6 -8
18 -8 29 0 11 -4 15 -12 11 -6 -4 -8 -3 -4 4 3 6 1 23 -6 39 -6 15 -12 30 -13
33 -1 3 -7 19 -14 35 -6 17 -14 36 -16 43 -3 7 -10 10 -16 6 -8 -5 -9 -3 -4 5
11 19 -86 213 -104 206 -11 -4 -11 -2 -3 8 9 10 7 19 -8 34 -10 12 -16 23 -14
26 5 4 -40 82 -56 97 -3 3 -14 22 -25 43 -11 20 -23 37 -28 37 -4 0 -5 5 -2
10 3 6 1 10 -4 10 -6 0 -11 7 -11 15 0 7 -8 19 -17 24 -10 6 -14 11 -10 11 5
0 2 7 -5 15 -23 26 -33 39 -57 78 -12 20 -27 34 -33 31 -7 -4 -8 -2 -4 4 8 13
-43 74 -55 66 -5 -3 -7 1 -4 8 3 7 -11 31 -30 53 -19 22 -54 62 -78 89 -59 69
-389 400 -467 470 -170 150 -455 346 -665 455 -362 189 -791 320 -1165 357
-30 3 -66 8 -80 11 -28 5 -496 14 -501 8z m-69 -199 c0 -2 -7 -7 -16 -10 -8
-3 -12 -2 -9 4 6 10 25 14 25 6z m-68 -13 c-22 -3 -30 -8 -25 -16 5 -9 2 -8
-9 0 -8 7 -18 10 -21 7 -3 -3 -23 -8 -44 -11 -21 -3 -41 -10 -45 -17 -6 -8 -8
-7 -8 2 0 7 -5 10 -11 7 -6 -4 -40 -14 -77 -22 -37 -8 -74 -16 -82 -18 -8 -2
-20 -4 -27 -4 -7 -1 -10 -8 -7 -18 4 -13 3 -15 -4 -5 -7 11 -18 11 -63 0 -30
-8 -63 -12 -74 -10 -20 5 77 37 205 68 69 17 75 18 160 29 30 4 57 9 59 11 2
2 27 3 55 2 37 -1 42 -2 18 -5z m108 -93 c0 -5 -5 -10 -11 -10 -5 0 -7 5 -4
10 3 6 8 10 11 10 2 0 4 -4 4 -10z m730 6 c0 -2 -8 -10 -17 -17 -16 -13 -17
-12 -4 4 13 16 21 21 21 13z m-285 -73 c138 -2 297 -10 315 -17 8 -3 35 -7 60
-10 61 -7 268 -44 308 -55 17 -5 32 -7 32 -3 0 3 5 1 12 -6 9 -9 15 -9 27 1 9
7 12 8 8 1 -6 -10 35 -27 93 -38 8 -2 28 -8 43 -14 16 -7 36 -12 45 -13 9 0
-7 -9 -36 -19 -127 -45 -251 -116 -432 -248 -242 -175 -295 -202 -393 -202
-76 1 -132 16 -223 61 -74 36 -100 58 -280 238 -110 109 -218 210 -242 226
-38 25 -40 29 -25 40 10 7 21 12 24 9 3 -2 21 1 40 6 19 6 57 13 84 16 28 4
53 12 57 18 6 8 8 8 8 -1 0 -7 6 -11 13 -8 22 7 141 16 235 17 51 0 95 4 98 9
3 5 11 6 17 2 7 -5 57 -9 112 -10z m-1579 -178 c-11 -8 -24 -15 -29 -15 -4 0
-5 -4 -2 -10 4 -6 -1 -7 -11 -3 -12 4 -15 3 -10 -5 4 -8 2 -10 -8 -6 -8 3 -24
-4 -35 -15 -12 -12 -21 -19 -21 -16 0 3 -9 1 -20 -5 -11 -6 -17 -16 -14 -22 4
-7 3 -8 -4 -4 -11 6 -50 -8 -62 -23 -3 -3 -18 -14 -35 -23 -16 -10 -29 -22
-27 -28 1 -7 -2 -9 -7 -5 -14 8 -62 -25 -54 -38 3 -6 1 -7 -5 -3 -11 6 -82
-38 -90 -56 -2 -5 -9 -8 -16 -8 -18 0 -48 -35 -39 -45 5 -4 2 -5 -5 -1 -13 8
-88 -50 -202 -153 -30 -28 -58 -50 -62 -51 -5 0 -8 -7 -8 -15 0 -8 -4 -15 -10
-15 -17 0 -129 -123 -123 -134 3 -6 2 -8 -2 -3 -11 9 -56 -33 -49 -45 3 -5 1
-7 -4 -6 -9 3 -29 -21 -152 -171 -19 -24 -42 -55 -50 -69 -8 -14 -25 -36 -38
-50 -12 -14 -20 -32 -17 -39 2 -8 0 -11 -5 -8 -10 6 -63 -71 -63 -92 0 -7 -3
-10 -7 -8 -3 2 -15 -13 -25 -33 -11 -20 -22 -39 -25 -42 -20 -17 -100 -174
-96 -186 3 -8 2 -12 -4 -9 -14 8 -149 -286 -153 -333 -1 -12 -4 -22 -8 -22 -4
0 -10 -13 -14 -30 -12 -55 -32 -45 -25 14 2 17 43 123 115 295 63 151 208 407
318 561 180 251 432 517 688 725 64 51 222 152 294 187 44 21 114 47 155 57
91 24 90 24 66 6z m184 -71 c0 -8 -19 -13 -24 -6 -3 5 1 9 9 9 8 0 15 -2 15
-3z m2614 -66 c-3 -4 -14 -8 -25 -8 -13 0 -18 -4 -13 -12 5 -10 4 -10 -5 -2
-15 13 -127 -24 -232 -76 -91 -46 -220 -131 -213 -141 3 -5 -2 -6 -10 -3 -9 3
-16 2 -16 -3 0 -6 -12 -15 -26 -22 -28 -12 -117 -81 -122 -93 -2 -5 -7 -8 -11
-8 -5 0 -42 -22 -82 -49 -85 -56 -131 -71 -209 -70 l-55 0 40 15 c96 35 188
92 367 227 91 69 196 133 263 162 67 28 178 65 215 71 19 3 53 9 75 13 53 9
65 9 59 -1z m-2379 -18 c-9 -14 8 -12 24 3 11 10 13 10 7 0 -5 -9 0 -13 16
-14 13 0 30 -2 38 -4 8 -2 35 -8 60 -13 25 -6 72 -18 105 -27 33 -10 68 -18
78 -19 9 0 17 -3 17 -7 0 -6 57 -30 80 -34 3 -1 31 -13 63 -28 32 -15 62 -27
66 -27 5 0 11 -4 13 -9 2 -5 10 -11 18 -13 8 -2 23 -11 34 -21 15 -13 22 -14
28 -5 6 10 8 9 8 -3 0 -9 24 -32 53 -52 28 -21 69 -52 89 -70 107 -93 144
-124 177 -147 20 -14 38 -28 39 -33 2 -4 8 -5 13 -1 5 3 9 1 9 -5 0 -11 60
-47 73 -43 4 1 7 -3 7 -9 0 -6 7 -8 16 -5 8 3 13 2 10 -3 -3 -5 8 -14 24 -20
17 -5 30 -7 30 -3 0 4 4 2 8 -4 19 -30 254 -61 236 -31 -6 9 -4 9 7 1 16 -13
72 -8 77 7 2 5 7 7 12 4 14 -9 131 38 126 51 -3 7 2 10 13 7 10 -2 25 3 34 11
8 9 20 16 26 16 6 0 11 5 11 10 0 6 3 9 8 8 6 -2 47 21 77 45 6 4 33 24 60 46
28 21 88 64 135 96 47 32 87 61 90 64 3 3 10 7 15 8 21 4 165 70 161 74 -2 2
9 5 26 5 17 1 33 5 37 10 3 5 22 10 41 12 19 1 42 5 50 9 31 13 215 15 274 3
34 -7 71 -14 84 -15 13 -2 30 -9 38 -16 8 -6 17 -9 20 -6 4 3 11 1 18 -4 6 -5
40 -28 76 -51 271 -171 583 -549 795 -962 167 -326 247 -579 320 -1016 21
-120 27 -550 11 -715 -13 -139 -14 -147 -36 -260 -5 -27 -11 -61 -14 -75 -22
-129 -101 -385 -173 -558 -80 -194 -239 -492 -261 -492 -14 0 -30 17 -55 57
-72 115 -179 167 -352 172 -156 4 -279 -25 -516 -122 -286 -117 -441 -151
-684 -151 -158 0 -176 2 -251 27 -101 34 -141 60 -172 116 -30 54 -61 143 -69
196 -3 22 -8 45 -12 50 -8 11 -6 318 2 351 3 12 8 39 11 60 4 22 9 55 13 74 4
19 7 38 8 42 0 3 3 10 7 14 4 4 2 14 -5 22 -9 13 -9 14 1 8 7 -4 12 -2 13 6 1
21 6 40 24 93 10 28 19 55 20 60 3 14 15 45 30 80 8 16 11 33 9 37 -3 4 0 8 5
8 6 0 11 5 11 10 0 6 9 29 20 52 11 22 17 45 14 49 -3 5 -1 9 4 9 9 0 47 68
45 80 0 3 7 13 17 23 17 17 19 16 44 -50 34 -88 92 -176 157 -238 29 -28 94
-92 146 -143 60 -61 97 -91 105 -86 7 4 10 3 5 -1 -10 -12 55 -50 193 -113 63
-29 123 -57 132 -63 15 -8 23 2 54 63 20 39 63 118 95 174 32 56 59 105 59
109 0 3 7 13 15 22 9 8 15 17 13 19 -2 1 -49 4 -105 5 -115 2 -153 7 -153 21
0 5 18 40 40 78 22 38 40 71 40 73 0 3 -53 7 -117 10 -65 2 -125 6 -133 9 -66
19 -71 26 -99 137 -26 105 -24 328 4 386 10 22 25 44 32 48 7 5 10 14 7 20 -4
7 -4 9 1 5 4 -4 24 1 44 11 39 21 120 42 169 43 17 1 29 5 25 11 -3 5 2 5 13
-1 11 -5 46 -11 79 -12 33 -2 74 -4 90 -4 17 -1 40 -7 51 -14 12 -6 23 -9 26
-7 2 2 19 -2 38 -9 105 -39 98 -33 127 -112 16 -40 31 -74 35 -74 4 0 12 19
18 42 l12 41 23 -27 c13 -15 29 -25 34 -21 6 3 9 0 6 -7 -6 -16 60 -150 69
-140 4 3 4 -1 1 -9 -3 -8 -2 -26 4 -40 7 -18 10 -20 14 -9 38 103 76 233 72
240 -4 6 -2 10 3 10 6 0 13 7 16 16 4 10 2 13 -7 8 -6 -4 -5 1 4 12 19 22 49
113 40 118 -6 4 -133 34 -181 43 -13 2 -26 5 -27 7 -1 1 6 27 17 57 11 30 18
59 16 65 -2 6 -19 14 -38 17 -18 4 -71 15 -118 26 -47 10 -112 22 -145 26 -33
4 -69 9 -80 12 -11 2 -103 7 -205 10 -102 3 -186 6 -187 7 -1 1 2 19 8 41 5
22 11 54 14 70 3 17 7 41 11 55 3 14 7 39 9 55 2 17 4 30 5 30 2 0 7 19 15 58
4 21 2 27 -7 22 -7 -4 -5 0 5 8 10 9 18 24 17 34 -1 10 -2 21 -1 26 0 4 1 9 2
12 0 2 5 19 10 37 5 18 12 44 14 58 7 46 34 175 43 205 4 17 8 39 8 50 -1 11
3 23 7 26 5 3 9 24 10 47 1 22 4 38 7 36 4 -4 33 112 54 216 3 14 10 41 16 60
5 19 10 36 10 37 0 1 -10 0 -22 -3 -13 -2 -51 -6 -86 -9 -34 -2 -73 -7 -87
-11 -30 -7 -30 -8 -5 100 22 90 20 110 -8 102 -10 -2 -44 -7 -77 -11 -33 -3
-91 -10 -130 -15 -38 -5 -78 -10 -87 -10 -10 0 -53 -48 -101 -112 -46 -62
-146 -196 -221 -298 -76 -102 -149 -198 -161 -215 -13 -16 -168 -225 -345
-462 -283 -380 -344 -457 -339 -425 5 28 -2 52 -13 46 -10 -6 -10 -5 -1 8 7 8
10 17 7 20 -2 3 -7 18 -10 34 -2 16 -7 40 -11 54 -3 14 -7 31 -9 39 -2 8 -6
26 -10 40 -4 14 -8 29 -9 34 -2 4 -3 19 -4 33 0 14 -5 23 -9 20 -4 -2 -7 8 -6
22 0 15 -8 54 -18 87 -10 33 -21 75 -24 94 -2 19 -9 40 -14 46 -6 7 -7 15 -3
18 3 4 1 7 -5 7 -6 0 -9 7 -6 15 3 8 -3 43 -14 77 -11 35 -26 86 -33 115 -7
29 -15 50 -18 48 -3 -1 -7 11 -8 28 -2 18 -7 33 -13 35 -6 2 -8 7 -5 12 5 8
-64 230 -75 240 -3 3 -5 10 -6 15 0 6 -9 38 -19 72 l-20 62 -59 3 -60 3 -18
54 c-11 30 -26 70 -34 89 l-14 35 -173 -6 c-183 -7 -195 -8 -323 -32 -371 -69
-653 -282 -777 -585 -36 -89 -53 -160 -64 -263 l-6 -59 94 46 c52 26 102 51
112 57 19 10 46 1 30 -10 -13 -8 -46 -129 -38 -140 3 -5 2 -12 -3 -15 -10 -6
-16 -106 -7 -106 11 0 70 33 76 42 3 5 9 9 13 8 12 -3 66 22 66 31 0 5 8 5 17
2 12 -5 15 -2 10 10 -4 11 -2 14 7 11 7 -3 35 5 61 18 48 23 48 23 52 78 5 77
22 156 44 208 11 24 16 49 12 54 -3 6 -1 8 4 5 13 -8 26 20 16 35 -3 6 -2 8 3
5 5 -3 21 11 34 31 14 20 41 53 60 72 19 19 34 38 33 42 -2 5 3 8 10 8 7 0 26
12 43 28 18 15 38 28 45 30 8 2 16 8 17 13 2 5 12 9 23 9 10 0 19 4 19 10 0 5
3 9 8 8 4 -2 33 6 65 16 32 10 61 16 63 13 5 -4 -19 -134 -82 -442 -12 -58
-24 -123 -29 -150 -118 -673 -158 -840 -237 -1001 -123 -252 -340 -364 -562
-290 -157 53 -283 159 -483 409 -56 69 -104 122 -108 119 -4 -4 -6 -2 -5 3 5
24 -1 37 -14 32 -9 -4 -13 -1 -10 6 2 7 -5 22 -16 34 -11 12 -20 27 -20 33 0
7 -9 9 -22 5 -16 -4 -19 -4 -9 3 11 8 5 21 -29 66 -23 31 -46 54 -50 51 -4 -3
-7 3 -6 13 0 9 -5 16 -12 14 -8 -1 -11 2 -7 7 5 9 -51 87 -128 181 -7 9 -28
37 -46 64 -33 47 -33 50 -22 95 7 25 13 54 14 63 1 9 5 14 9 12 4 -3 8 1 8 9
0 8 7 28 16 45 8 18 13 36 9 42 -3 5 -2 10 3 10 8 0 28 38 36 70 1 3 7 15 14
28 7 12 10 22 7 22 -4 0 1 7 10 16 9 10 14 25 12 36 -3 10 -2 16 2 14 7 -5 49
72 47 85 0 4 7 16 17 27 11 12 16 25 13 31 -3 5 -2 11 3 13 12 4 114 179 114
195 0 7 3 11 5 8 3 -3 21 18 39 46 30 43 33 53 21 67 -11 15 -11 15 3 4 13
-10 19 -9 29 3 10 12 10 18 -1 33 -12 15 -12 16 2 5 12 -10 18 -9 32 7 9 11
17 25 17 30 0 6 5 10 10 10 6 0 10 7 10 15 0 8 4 15 8 15 4 0 26 23 47 52 22
28 46 57 53 64 7 8 11 18 7 24 -3 6 1 7 9 4 9 -3 16 -1 16 5 0 6 32 43 70 81
39 39 68 75 65 80 -3 6 1 7 9 4 9 -3 21 6 32 25 9 16 28 35 40 42 13 6 21 16
18 21 -3 4 0 8 6 8 9 0 61 46 162 142 16 15 32 28 36 29 20 6 60 44 55 52 -3
6 -2 7 4 4 13 -8 105 57 96 68 -5 4 -3 5 3 2 14 -8 66 27 57 38 -5 4 -2 5 6 0
7 -4 16 -3 20 2 12 18 189 95 246 108 17 4 39 9 50 12 11 2 71 6 133 8 63 2
116 6 119 9 10 10 15 7 8 -4z m-451 -46 c3 -8 2 -12 -4 -9 -6 3 -10 10 -10 16
0 14 7 11 14 -7z m3003 -39 c0 -8 -4 -12 -9 -9 -5 3 -6 10 -3 15 9 13 12 11
12 -6z m-1117 -475 c0 -5 -5 -10 -11 -10 -5 0 -7 5 -4 10 3 6 8 10 11 10 2 0
4 -4 4 -10z m-2800 -74 c0 -3 -4 -8 -10 -11 -5 -3 -10 -1 -10 4 0 6 5 11 10
11 6 0 10 -2 10 -4z m1411 -285 c12 -5 14 -13 7 -37 -8 -31 -15 -35 -93 -50
-53 -11 -154 -50 -239 -94 -107 -54 -238 -149 -231 -167 2 -7 1 -12 -3 -12
-19 3 -32 -2 -32 -12 0 -7 -10 -20 -21 -30 -34 -30 -69 -81 -62 -92 3 -6 1 -7
-5 -3 -12 7 -9 35 13 97 70 198 251 360 445 398 50 10 197 11 221 2z m-1731
-197 c0 -8 -19 -13 -24 -6 -3 5 1 9 9 9 8 0 15 -2 15 -3z m2235 -4 c3 -5 1
-10 -4 -10 -6 0 -11 5 -11 10 0 6 2 10 4 10 3 0 8 -4 11 -10z m1420 -111 c-21
-110 -21 -112 -50 -145 -13 -15 -21 -32 -18 -37 3 -6 2 -7 -4 -4 -10 6 -120
-140 -115 -155 1 -4 -5 -8 -14 -8 -10 0 -14 -5 -10 -16 3 -8 2 -13 -3 -10 -9
6 -26 -22 -22 -37 1 -5 -3 -6 -8 -2 -6 3 -15 -4 -22 -17 -6 -12 -22 -33 -35
-47 -13 -14 -24 -31 -24 -38 0 -7 -5 -13 -11 -13 -6 0 -8 -7 -5 -16 3 -8 2
-13 -3 -10 -5 3 -25 -16 -45 -42 -19 -26 -40 -52 -46 -59 -5 -7 -10 -17 -10
-23 0 -5 -3 -10 -7 -10 -5 0 -19 -16 -32 -35 -21 -31 -39 -55 -72 -93 -6 -7
-8 -19 -5 -27 3 -9 0 -12 -10 -8 -8 3 -14 -1 -14 -10 0 -8 -7 -18 -16 -21 -8
-3 -13 -10 -10 -15 4 -5 2 -11 -3 -13 -13 -4 -121 -146 -121 -158 0 -6 -4 -10
-10 -10 -5 0 -10 -7 -10 -15 0 -8 -4 -15 -9 -15 -4 0 -28 -28 -52 -62 -24 -35
-48 -68 -54 -74 -18 -20 -39 -48 -78 -101 -42 -58 -43 -59 -45 -40 0 6 -3 34
-6 61 -4 40 -1 55 17 80 12 17 193 261 402 541 209 281 428 574 485 651 58 78
106 141 108 139 1 -1 -5 -40 -13 -86z m-1335 -209 c0 -5 -2 -10 -4 -10 -3 0
-8 5 -11 10 -3 6 -1 10 4 10 6 0 11 -4 11 -10z m3565 -120 c3 -6 -1 -7 -9 -4
-18 7 -21 14 -7 14 6 0 13 -4 16 -10z m-3531 -46 c3 -8 2 -12 -4 -9 -6 3 -10
10 -10 16 0 14 7 11 14 -7z m1181 -225 c-14 -68 -27 -134 -30 -147 -22 -123
-48 -249 -54 -259 -3 -6 -56 -44 -116 -84 -274 -181 -513 -494 -619 -812 -61
-182 -80 -311 -79 -542 0 -182 2 -209 26 -297 49 -186 149 -342 282 -438 11
-8 33 -31 49 -50 16 -19 33 -34 38 -32 5 1 7 -2 3 -7 -8 -13 106 -103 123 -96
7 3 11 1 8 -4 -12 -19 152 -94 234 -107 14 -2 36 -7 50 -11 47 -12 55 -13 173
-17 71 -3 115 -1 112 5 -4 5 3 5 18 0 14 -6 27 -8 28 -6 2 2 31 6 64 9 33 3
71 7 85 10 14 3 43 8 65 11 44 7 69 12 73 15 1 2 5 3 10 4 4 1 13 5 21 10 10
7 12 6 6 -4 -5 -7 -4 -11 1 -8 15 8 48 21 64 24 18 3 31 6 97 24 29 7 49 18
46 23 -3 6 -1 7 6 3 7 -4 20 -4 29 0 9 4 19 8 22 9 35 8 147 50 155 56 5 5 14
9 21 9 6 0 31 9 55 19 24 11 47 20 51 21 4 1 36 14 70 30 109 49 221 76 236
57 14 -17 6 -163 -12 -228 -31 -115 -100 -232 -190 -321 -40 -40 -208 -173
-321 -253 -260 -187 -520 -320 -817 -419 -97 -32 -164 -43 -152 -25 2 4 -76
85 -174 180 -135 132 -197 185 -259 221 -87 51 -240 116 -350 147 -37 11 -117
33 -178 51 -259 73 -376 120 -430 175 -20 19 -33 35 -30 35 3 0 -7 21 -22 48
-15 26 -27 48 -26 49 1 2 -4 18 -12 36 -7 18 -17 45 -20 60 -4 15 -12 24 -18
20 -5 -3 -7 -2 -4 4 4 6 -3 41 -14 79 -11 38 -22 79 -24 92 -2 13 -8 29 -14
36 -6 7 -8 15 -5 19 7 7 -24 122 -48 171 -10 22 -18 46 -18 53 0 7 -4 13 -10
13 -5 0 -10 6 -10 13 0 6 -14 28 -30 47 -16 19 -30 39 -30 44 0 4 -8 5 -17 2
-10 -4 -14 -4 -10 0 7 7 -30 44 -44 44 -5 0 -27 25 -49 55 -47 64 -72 89 -121
120 -108 69 -262 76 -424 18 -38 -14 -143 -64 -233 -110 -187 -97 -284 -135
-402 -157 -166 -32 -311 -16 -445 49 -73 35 -115 80 -144 152 -7 18 -18 30
-24 26 -6 -3 -7 -1 -3 5 4 6 -1 24 -11 39 -10 15 -17 27 -15 28 2 0 0 8 -3 17
-4 10 -19 56 -34 103 -15 47 -31 82 -36 77 -5 -4 -5 -2 -1 5 3 6 2 31 -3 55
-6 24 -12 57 -15 73 -22 116 -26 145 -31 185 -7 61 -13 143 -16 213 -1 33 -7
57 -13 57 -6 0 -5 4 3 9 12 8 13 14 3 36 -7 14 -8 24 -3 21 11 -7 8 55 -4 74
-5 8 -4 11 1 7 11 -6 12 169 1 179 -4 4 -3 12 3 19 5 6 11 50 12 98 2 48 7 87
13 87 5 0 4 5 -3 12 -8 8 -8 15 -1 24 6 7 12 30 14 51 2 21 3 39 4 41 1 2 12
-7 25 -20 47 -46 154 -146 266 -248 63 -58 127 -116 141 -130 25 -24 188 -176
305 -285 81 -75 153 -127 164 -120 6 4 9 1 8 -5 -2 -7 6 -17 17 -23 11 -7 22
-15 25 -18 3 -3 32 -19 65 -36 163 -83 237 -101 399 -98 84 2 133 8 159 19 20
9 37 14 37 11 0 -3 13 1 30 10 16 8 31 15 32 14 10 -3 58 23 58 31 0 6 4 9 9
6 17 -11 155 99 145 116 -3 5 -1 7 4 6 23 -7 129 153 116 174 -4 7 -3 9 1 5
11 -10 47 62 38 77 -3 6 -2 8 2 3 12 -10 66 130 69 180 0 11 4 19 7 17 4 -2 9
5 12 16 3 13 1 18 -6 13 -7 -4 -6 1 1 10 8 9 18 33 23 54 12 47 14 52 26 83 7
16 7 26 1 29 -6 2 -5 7 3 11 10 7 10 11 -1 24 -11 14 -10 16 5 10 15 -6 17 -3
13 14 -4 12 -2 20 3 16 8 -5 13 20 12 68 0 10 3 15 6 12 5 -5 48 165 55 221 3
17 5 30 6 30 2 0 6 18 13 60 3 17 8 37 11 45 3 8 7 29 9 45 17 117 36 173 43
132 1 -7 18 -77 38 -157 59 -244 97 -463 111 -640 4 -41 8 -91 10 -110 2 -19
4 -77 4 -128 1 -51 4 -91 9 -89 4 3 30 8 57 11 28 4 60 10 73 13 30 7 57 -14
41 -33 -9 -11 -8 -14 0 -14 7 0 10 -4 6 -9 -9 -15 -10 -115 -1 -129 4 -7 15
-11 24 -8 10 3 42 8 72 11 47 5 59 11 83 40 16 19 28 36 28 39 0 3 11 17 25
31 14 14 22 30 19 35 -4 6 -2 9 3 8 5 -2 38 35 73 82 35 47 68 88 74 92 5 4 7
8 3 8 -4 0 6 14 22 32 16 17 28 34 26 36 -2 2 7 14 21 28 14 14 22 31 19 40
-3 9 -2 12 4 9 10 -6 49 31 50 47 0 4 14 22 30 40 17 18 30 38 30 45 0 7 3 13
8 13 4 1 25 26 47 56 22 30 54 74 72 96 17 23 29 46 26 52 -4 5 -1 6 6 2 8 -5
14 0 18 13 3 12 10 21 16 21 6 0 8 3 5 6 -3 3 4 15 16 28 33 35 61 78 60 92
-1 7 5 10 12 7 8 -3 14 0 14 6 0 6 9 21 20 33 10 13 19 27 19 31 0 5 11 19 25
32 14 13 26 27 26 30 0 3 9 15 20 27 10 12 17 25 14 30 -3 4 1 8 8 8 14 1 65
77 60 92 -1 5 2 7 7 4 5 -3 19 10 32 29 13 18 25 32 27 31 1 -2 -9 -59 -23
-127z m680 -374 c17 -3 38 -8 47 -11 9 -3 25 -6 35 -8 31 -7 119 -45 103 -45
-8 -1 -82 -3 -165 -5 -143 -4 -202 -10 -235 -23 -29 -11 -40 -11 -33 0 4 7 9
21 11 32 2 11 5 27 7 35 2 8 4 21 4 29 1 11 19 13 99 8 53 -4 111 -9 127 -12z
m-4702 -30 c4 -8 3 -16 -1 -19 -4 -3 -9 4 -9 15 -2 23 3 25 10 4z m6487 1 c0
-3 -4 -8 -10 -11 -5 -3 -10 -1 -10 4 0 6 5 11 10 11 6 0 10 -2 10 -4z m-4309
-131 c-10 -11 -64 -238 -65 -272 -1 -11 -4 -19 -8 -16 -5 2 -9 -5 -9 -16 -1
-12 -2 -27 -3 -33 -1 -7 -4 -16 -9 -19 -4 -3 -9 -14 -11 -25 -12 -57 -104
-232 -128 -242 -4 -2 -8 -8 -8 -13 0 -9 -24 -32 -85 -84 -16 -14 -51 -36 -77
-49 -26 -13 -45 -25 -43 -27 5 -5 -26 -8 -120 -11 -44 -2 -83 -7 -87 -13 -5
-6 -8 -5 -8 3 0 6 -7 12 -17 12 -25 0 -6 14 25 17 15 2 56 13 92 25 258 83
408 282 526 695 16 56 32 96 36 90 4 -6 3 -16 -1 -22z m1706 -185 c2 -22 -7
-38 -37 -66 -22 -21 -37 -41 -34 -46 3 -5 0 -7 -8 -6 -7 2 -12 -2 -11 -7 1 -6
-7 -12 -18 -12 -17 -2 -15 4 13 45 30 45 88 122 91 122 1 0 3 -13 4 -30z m443
-6 c0 -8 -19 -13 -24 -6 -3 5 1 9 9 9 8 0 15 -2 15 -3z m955 -4 c3 -5 1 -10
-4 -10 -6 0 -11 5 -11 10 0 6 2 10 4 10 3 0 8 -4 11 -10z m1282 -5 c0 -8 -4
-12 -9 -9 -5 3 -6 10 -3 15 9 13 12 11 12 -6z m-4406 -82 c13 -16 12 -17 -3
-4 -10 7 -18 15 -18 17 0 8 8 3 21 -13z m889 -147 c0 -3 -4 -8 -10 -11 -5 -3
-10 -1 -10 4 0 6 5 11 10 11 6 0 10 -2 10 -4z m-885 -174 c-3 -3 -11 0 -18 7
-9 10 -8 11 6 5 10 -3 15 -9 12 -12z m4402 -67 c0 -8 -4 -12 -9 -9 -5 3 -6 10
-3 15 9 13 12 11 12 -6z m-2763 -43 c3 -5 -1 -9 -9 -9 -8 0 -12 4 -9 9 3 4 7
8 9 8 2 0 6 -4 9 -8z m-1877 -127 c0 -8 -4 -12 -9 -9 -5 3 -6 10 -3 15 9 13
12 11 12 -6z m-1882 -25 c10 -11 16 -20 13 -20 -3 0 -13 9 -23 20 -10 11 -16
20 -13 20 3 0 13 -9 23 -20z m3570 -49 c-9 -8 -36 -10 -30 -2 2 4 11 8 20 8 8
0 13 -3 10 -6z m2815 5 c0 -3 -4 -8 -10 -11 -5 -3 -10 -1 -10 4 0 6 5 11 10
11 6 0 10 -2 10 -4z m-4 -38 c4 -7 3 -8 -4 -4 -11 7 -16 -13 -15 -66 0 -10 -3
-18 -7 -18 -3 0 -7 -13 -8 -30 -1 -16 -6 -40 -11 -52 -4 -13 -8 -35 -7 -50 1
-14 -3 -24 -8 -21 -5 3 -7 -6 -4 -20 3 -15 1 -24 -3 -21 -5 3 -10 -4 -10 -15
-2 -29 -3 -34 -12 -48 -5 -7 -5 -17 -2 -23 3 -5 1 -10 -4 -10 -6 0 -10 -3 -9
-7 1 -9 -10 -59 -19 -83 -4 -8 -7 -17 -8 -20 -1 -3 -7 -18 -13 -33 -7 -16 -12
-32 -12 -37 0 -4 -20 -56 -45 -116 -24 -59 -42 -111 -39 -116 3 -4 1 -8 -4 -8
-5 0 -17 -17 -26 -37 -9 -21 -21 -46 -27 -56 -5 -10 -7 -23 -3 -29 4 -6 3 -8
-4 -4 -6 3 -13 -3 -17 -13 -6 -21 -77 -145 -136 -241 -26 -43 -35 -51 -37 -35
-2 11 -8 24 -12 29 -5 4 6 29 24 55 78 109 205 354 279 536 63 155 142 405
167 530 16 77 21 87 36 63z m-1581 -7 c3 -5 2 -12 -3 -15 -5 -3 -9 1 -9 9 0
17 3 19 12 6z m-200 -30 c3 -5 2 -12 -3 -15 -5 -3 -9 1 -9 9 0 17 3 19 12 6z
m0 -170 c3 -5 2 -12 -3 -15 -5 -3 -9 1 -9 9 0 17 3 19 12 6z m1716 -208 c13
-16 12 -17 -3 -4 -10 7 -18 15 -18 17 0 8 8 3 21 -13z m-4786 -363 c4 -6 -1
-7 -11 -3 -13 5 -15 3 -9 -7 5 -8 4 -11 -3 -6 -14 9 -153 -65 -145 -77 3 -6 2
-7 -4 -4 -15 9 -94 -24 -86 -36 3 -6 1 -7 -6 -3 -6 4 -37 -1 -69 -12 -31 -11
-74 -23 -94 -27 -24 -5 -35 -11 -31 -19 4 -8 3 -8 -7 1 -7 7 -22 8 -39 4 -14
-4 -53 -8 -86 -9 l-60 -2 70 19 c39 10 149 48 245 83 96 36 202 73 235 82 33
10 65 19 70 21 18 6 24 5 30 -5z m4760 -70 c3 -6 -1 -7 -9 -4 -18 7 -21 14 -7
14 6 0 13 -4 16 -10z m-4605 -76 c0 -8 -19 -13 -24 -6 -3 5 1 9 9 9 8 0 15 -2
15 -3z m230 -9 c6 -4 19 -1 28 6 9 7 14 9 9 4 -4 -5 6 -14 23 -21 37 -16 41
-26 95 -234 77 -292 125 -395 231 -492 53 -48 132 -128 160 -160 17 -20 73
-68 79 -68 3 0 15 -8 26 -18 10 -11 32 -25 47 -32 15 -7 34 -16 42 -21 29 -18
65 -31 87 -32 11 -1 20 -5 18 -8 -6 -9 125 -40 137 -33 7 4 8 3 4 -4 -5 -8 1
-13 16 -14 31 -2 40 -3 63 -11 11 -3 31 -8 45 -11 14 -2 36 -8 50 -13 14 -5
41 -9 62 -9 20 1 34 -2 31 -6 -2 -5 3 -9 11 -9 18 -2 25 -3 46 -12 39 -16 119
-35 124 -30 3 4 6 2 6 -3 0 -6 16 -16 35 -23 19 -6 55 -23 80 -37 40 -23 47
-32 63 -84 10 -32 17 -75 17 -96 0 -44 -11 -49 -128 -59 -40 -3 -88 -8 -107
-11 -53 -7 -384 -7 -475 0 -164 13 -190 17 -398 52 -16 2 -68 14 -115 25 -48
11 -94 22 -103 24 -9 2 -72 21 -141 43 -384 123 -740 318 -1043 572 -72 61
-179 174 -245 260 -14 18 -33 42 -43 54 -10 11 -26 33 -35 49 -9 15 -20 27
-24 27 -4 0 -8 5 -8 10 0 9 -35 65 -50 80 -3 3 -13 19 -22 35 -10 17 -22 29
-28 27 -7 -1 -9 2 -5 8 5 9 -10 48 -24 60 -3 3 -14 20 -24 37 l-18 32 94 -33
c52 -19 114 -37 138 -41 24 -4 53 -9 64 -11 56 -11 233 1 249 16 5 5 15 6 24
3 10 -4 13 -2 8 5 -5 8 -2 10 8 6 8 -3 30 -1 49 5 19 7 44 14 57 16 12 2 32
12 43 22 11 10 17 12 13 6 -4 -8 11 -5 39 7 25 11 49 20 53 21 4 0 6 4 5 8 -1
3 12 7 29 7 17 1 34 7 39 15 5 8 9 11 9 7 0 -4 44 8 98 27 54 19 109 36 122
39 14 3 36 7 50 11 14 3 43 7 64 10 22 3 41 6 42 8 5 5 93 -1 104 -8z m3377 3
c15 -7 38 -19 50 -28 20 -16 18 -17 -53 -30 -41 -7 -74 -17 -74 -22 0 -5 -4
-6 -10 -3 -5 3 -69 -18 -142 -47 -73 -29 -137 -51 -141 -50 -4 1 -10 -5 -13
-13 -3 -8 -9 -13 -13 -10 -13 7 -142 -41 -134 -50 4 -4 3 -5 -4 -1 -7 4 -41
-1 -75 -10 -69 -18 -73 -18 -138 -29 -25 -4 -54 -9 -65 -11 -20 -4 -155 -15
-213 -18 -19 -1 -36 2 -39 7 -3 4 -11 3 -19 -4 -9 -7 -14 -8 -14 -1 0 6 -8 13
-17 15 -10 3 -2 5 17 6 19 1 53 6 75 11 22 5 51 11 65 13 140 26 394 112 691
235 53 22 107 42 120 45 49 9 119 7 146 -5z m-3776 -45 c13 -16 12 -17 -3 -4
-17 13 -22 21 -14 21 2 0 10 -8 17 -17z m2443 -351 c3 -5 -1 -9 -9 -9 -8 0
-12 4 -9 9 3 4 7 8 9 8 2 0 6 -4 9 -8z m1555 -328 c-13 -22 -40 -61 -61 -88
-32 -41 -36 -51 -26 -65 11 -14 11 -14 -3 -4 -13 11 -21 7 -47 -20 -18 -18
-29 -37 -25 -42 5 -4 2 -5 -5 -1 -8 5 -18 2 -25 -6 -17 -20 -276 -213 -372
-277 -44 -30 -79 -58 -77 -63 1 -5 -2 -7 -8 -3 -13 8 -52 -19 -42 -30 4 -5 2
-5 -5 -1 -15 8 -76 -28 -65 -39 4 -5 1 -5 -5 -1 -7 4 -49 -12 -95 -37 -46 -24
-110 -55 -143 -68 -33 -13 -63 -28 -67 -34 -4 -5 -8 -7 -8 -2 0 4 -13 1 -30
-8 -16 -8 -31 -15 -32 -14 -2 0 -16 -5 -33 -12 -16 -7 -37 -14 -45 -15 -8 -2
-61 -19 -118 -38 -58 -19 -105 -29 -108 -24 -8 12 -15 9 111 53 471 163 912
442 1265 798 47 47 86 84 88 83 1 -2 -7 -21 -19 -42z m206 7 c3 -5 2 -12 -3
-15 -5 -3 -9 1 -9 9 0 17 3 19 12 6z m-204 -294 c-10 -9 -11 -8 -5 6 3 10 9
15 12 12 3 -3 0 -11 -7 -18z m-3757 -505 c3 -5 -1 -9 -9 -9 -8 0 -12 4 -9 9 3
4 7 8 9 8 2 0 6 -4 9 -8z m2681 -161 c3 -5 2 -12 -3 -15 -5 -3 -9 1 -9 9 0 17
3 19 12 6z m-701 -20 c4 -5 -3 -7 -14 -4 -23 6 -26 13 -6 13 8 0 17 -4 20 -9z
m-737 -146 c0 -8 -4 -12 -9 -9 -5 3 -6 10 -3 15 9 13 12 11 12 -6z m807 7 c3
-5 -1 -9 -9 -9 -8 0 -12 4 -9 9 3 4 7 8 9 8 2 0 6 -4 9 -8z"/>
</g>
</svg>
